<svg width="104" height="32" viewBox="0 0 104 32" fill="none" xmlns="http://www.w3.org/2000/svg">
<path d="M54.8372 8.04048C54.8372 9.19374 53.9079 10.1224 52.7546 10.1224C51.6014 10.1224 50.6728 9.19374 50.6728 8.04048C50.6728 6.88723 51.5697 5.9586 52.7546 5.9586C53.9405 5.9906 54.8372 6.91955 54.8372 8.04048ZM46.2524 12.2369V12.7495C46.2524 12.7495 45.2598 11.4676 43.1456 11.4676C39.6544 11.4676 36.9313 14.1264 36.9313 17.8099C36.9313 21.4617 39.6224 24.1522 43.1456 24.1522C45.2918 24.1522 46.2524 22.8389 46.2524 22.8389V23.3832C46.2524 23.6395 46.445 23.8312 46.701 23.8312H49.2952V11.787H46.701C46.445 11.7879 46.2524 12.0126 46.2524 12.2369ZM46.2524 19.9561C45.7724 20.661 44.8111 21.2697 43.6582 21.2697C41.6083 21.2697 40.0384 19.9884 40.0384 17.8099C40.0384 15.6317 41.6083 14.3504 43.6582 14.3504C44.7794 14.3504 45.8044 14.9911 46.2524 15.6637V19.9561ZM51.2174 11.7879H54.2922V23.8322H51.2174V11.7879ZM97.1509 11.4673C95.0367 11.4673 94.0434 12.7492 94.0434 12.7492V5.9906H90.9686V23.8322H93.5634C93.8197 23.8322 94.0114 23.6078 94.0114 23.3835V22.8392C94.0114 22.8392 95.0047 24.1525 97.1182 24.1525C100.61 24.1525 103.333 21.4626 103.333 17.8108C103.333 14.1591 100.61 11.4673 97.1509 11.4673ZM96.6382 21.2373C95.4527 21.2373 94.524 20.6293 94.0434 19.9241V15.6317C94.524 14.9911 95.549 14.3184 96.6382 14.3184C98.6881 14.3184 100.258 15.5997 100.258 17.7779C100.258 19.9561 98.6884 21.2373 96.6382 21.2373ZM89.3674 16.6893V23.8642H86.2919V17.0413C86.2919 15.0557 85.6513 14.2544 83.9227 14.2544C82.994 14.2544 82.0328 14.7351 81.4232 15.44V23.8325H78.349V11.7882H80.7826C81.0389 11.7882 81.2312 12.0126 81.2312 12.2369V12.7495C82.1281 11.8202 83.3131 11.4676 84.498 11.4676C85.8436 11.4676 86.9648 11.8526 87.8618 12.6212C88.9504 13.5181 89.3674 14.6711 89.3674 16.6893ZM70.8845 11.4673C68.771 11.4673 67.7777 12.7492 67.7777 12.7492V5.9906H64.7029V23.8322H67.2971C67.5534 23.8322 67.7457 23.6078 67.7457 23.3835V22.8392C67.7457 22.8392 68.739 24.1525 70.8525 24.1525C74.3443 24.1525 77.0668 21.4626 77.0668 17.8108C77.0988 14.1588 74.3763 11.4673 70.8845 11.4673ZM70.3719 21.2373C69.187 21.2373 68.2583 20.6293 67.7777 19.9241V15.6317C68.2583 14.9911 69.2833 14.3184 70.3719 14.3184C72.4224 14.3184 73.9916 15.5997 73.9916 17.7779C73.9916 19.9561 72.4224 21.2373 70.3719 21.2373ZM62.0441 11.4673C62.9727 11.4673 63.4533 11.6279 63.4533 11.6279V14.4784C63.4533 14.4784 60.8908 13.6135 59.2896 15.4397V23.8638H56.2141V11.7879H58.8089C59.0652 11.7879 59.2569 12.0122 59.2569 12.2366V12.7492C59.8342 12.0762 61.0834 11.4673 62.0441 11.4673ZM30.109 22.7429C29.949 22.3586 29.7887 21.9423 29.6287 21.5897C29.3721 21.0133 29.1158 20.4684 28.8921 19.9561L28.8601 19.9241C26.6496 15.1191 24.2797 10.2507 21.7809 5.4463L21.6849 5.25365C21.4221 4.75525 21.1659 4.25336 20.9166 3.74809C20.5959 3.17114 20.2759 2.56315 19.7633 1.9862C18.7384 0.704946 17.2648 0 15.6956 0C14.0937 0 12.6524 0.70495 11.5958 1.92189C11.1152 2.49819 10.7625 3.10683 10.4425 3.68377C10.1926 4.18872 9.93643 4.69061 9.67424 5.18934L9.57792 5.38197C7.11141 10.1864 4.70922 15.0551 2.49902 19.8598L2.46671 19.9234C2.24271 20.4367 1.98607 20.981 1.72976 21.557C1.56976 21.9096 1.40977 22.294 1.24977 22.7103C0.833138 23.8952 0.704814 25.0165 0.865451 26.17C1.21776 28.5726 2.81901 30.5898 5.02953 31.4874C5.86247 31.84 6.72741 32 7.62403 32C7.88035 32 8.20035 31.968 8.45699 31.9357C9.51425 31.8077 10.6032 31.4557 11.6604 30.8471C12.9737 30.1101 14.2229 29.0535 15.6322 27.5159C17.0414 29.0535 18.3227 30.1101 19.604 30.8471C20.6615 31.4557 21.7501 31.8077 22.8071 31.9357C23.0634 31.9683 23.384 32 23.6404 32C24.5373 32 25.4339 31.84 26.2345 31.4874C28.4771 30.5898 30.0463 28.5406 30.3989 26.17C30.6533 25.0491 30.5253 23.9285 30.109 22.7429ZM15.6632 24.4085C13.9334 22.2303 12.8121 20.1804 12.4281 18.4512C12.2681 17.7142 12.2358 17.0736 12.3321 16.497C12.3958 15.9843 12.5884 15.5357 12.8447 15.1514C13.4534 14.2871 14.4783 13.7421 15.6636 13.7421C16.8491 13.7421 17.9061 14.2548 18.4827 15.1514C18.739 15.5357 18.931 15.9846 18.9957 16.497C19.0913 17.0739 19.0593 17.7462 18.8993 18.4512C18.5137 20.1484 17.3925 22.1986 15.6632 24.4085ZM28.4431 25.914C28.2191 27.5796 27.0979 29.0215 25.5286 29.6621C24.76 29.9821 23.9267 30.0784 23.0944 29.9821C22.2938 29.8858 21.4926 29.6295 20.6603 29.1495C19.507 28.5082 18.3541 27.5159 17.0085 26.042C19.1224 23.4478 20.4036 21.077 20.8843 18.9635C21.1086 17.9702 21.1409 17.0736 21.0443 16.2403C20.9166 15.4397 20.6279 14.7027 20.1796 14.0621C19.186 12.6202 17.5202 11.7879 15.6629 11.7879C13.8057 11.7879 12.1398 12.6529 11.1468 14.0621C10.6985 14.7027 10.4099 15.4397 10.2819 16.2403C10.1539 17.0736 10.1856 18.0022 10.4419 18.9635C10.9222 21.077 12.2355 23.4795 14.3173 26.074C13.0041 27.5476 11.8188 28.5409 10.6656 29.1815C9.83263 29.6621 9.03233 29.9184 8.23171 30.0141C7.36709 30.1104 6.53382 29.9821 5.7972 29.6941C4.22795 29.0535 3.10669 27.6116 2.8827 25.946C2.7867 25.1454 2.85038 24.3448 3.17101 23.4478C3.26669 23.1272 3.42732 22.8072 3.58732 22.4229C3.81164 21.9103 4.06731 21.3653 4.32395 20.821L4.35627 20.7573C6.56614 15.9843 8.93634 11.1156 11.4028 6.37523L11.4988 6.1826C11.7555 5.70261 12.0118 5.18998 12.2678 4.70935C12.5241 4.19672 12.8121 3.71609 13.1647 3.29945C13.8374 2.53147 14.734 2.11452 15.7272 2.11452C16.7205 2.11452 17.6171 2.53147 18.2897 3.29945C18.6424 3.71705 18.9304 4.19768 19.1867 4.70935C19.4433 5.18998 19.6996 5.70261 19.9553 6.1826L20.0516 6.37523C22.4805 11.1353 24.8192 15.9409 27.0665 20.7893V20.8213C27.3232 21.3346 27.5472 21.9106 27.8035 22.4239C27.9635 22.8075 28.1238 23.1275 28.2198 23.4482C28.4755 24.2802 28.5715 25.0814 28.4431 25.914Z" fill="#191825" fill-opacity="0.5"/>
</svg>
