<svg width="189" height="32" viewBox="0 0 189 32" fill="none" xmlns="http://www.w3.org/2000/svg">
<mask id="mask0_1156_874" style="mask-type:luminance" maskUnits="userSpaceOnUse" x="0" y="0" width="189" height="32">
<path d="M188.696 0H0.0926514V32H188.696V0Z" fill="white"/>
</mask>
<g mask="url(#mask0_1156_874)">
<mask id="mask1_1156_874" style="mask-type:luminance" maskUnits="userSpaceOnUse" x="0" y="0" width="189" height="32">
<path d="M188.696 0H0.0926514V32H188.696V0Z" fill="white"/>
</mask>
<g mask="url(#mask1_1156_874)">
<path d="M8.68664 21.1754L4.67513 21.1717V16.3829C4.67513 15.3552 5.07297 14.8284 5.946 14.7032H8.67928C10.6279 14.7032 11.8877 15.9335 11.8951 17.9227C11.8951 19.9671 10.6648 21.1754 8.68664 21.1754ZM4.67513 8.25307V6.99325C4.67513 5.88815 5.13927 5.36508 6.16702 5.29877H8.21882C9.97593 5.29877 11.0295 6.3523 11.0295 8.11309C11.0295 9.45763 10.3075 11.0232 8.28144 11.0232H4.67513V8.25307ZM13.7996 13.0345L13.0776 12.6256L13.7075 12.0841C14.4479 11.4542 15.6746 10.0286 15.6746 7.57159C15.6746 3.81057 12.7608 1.38672 8.24829 1.38672H2.5165C1.17933 1.43461 0.107386 2.52865 0.0926514 3.86582V25.2016H8.35511C13.3723 25.2016 16.6065 22.472 16.6065 18.2432C16.6065 15.974 15.5567 14.0254 13.7996 13.0345Z" fill="#191825" fill-opacity="0.5"/>
</g>
<mask id="mask2_1156_874" style="mask-type:luminance" maskUnits="userSpaceOnUse" x="0" y="0" width="189" height="32">
<path d="M188.696 0H0.0926514V32H188.696V0Z" fill="white"/>
</mask>
<g mask="url(#mask2_1156_874)">
<path d="M182.924 7.68728C180.869 7.69096 178.92 8.63766 177.638 10.2511L177.281 10.7005L177.001 10.1959C176.087 8.53084 174.522 7.69096 172.334 7.69096C170.046 7.69096 168.51 8.96551 167.795 9.72803L167.331 10.2327L167.151 9.56595C166.893 8.60819 166.038 8.08143 164.749 8.08143H162.679L162.657 25.2842H167.357V17.6884C167.357 17.0217 167.438 16.366 167.604 15.6771C168.053 13.8427 169.287 11.8682 171.361 12.0635C172.636 12.1887 173.262 13.1759 173.262 15.0804V25.2805H177.995V17.6847C177.995 16.8522 178.073 16.226 178.261 15.6072C178.636 13.8537 179.929 12.0561 181.93 12.0561C183.377 12.0561 183.915 12.8739 183.915 15.0804V22.7645C183.915 24.4995 184.689 25.2805 186.427 25.2805H188.637L188.641 14.2995C188.656 9.90853 186.722 7.68728 182.924 7.68728ZM140.146 19.3092C140.131 19.324 138.109 21.4605 135.445 21.4605C133.018 21.4605 130.568 19.9723 130.568 16.6496C130.568 13.7801 132.469 11.7725 135.191 11.7725C136.075 11.7725 137.077 12.0893 137.236 12.6197L137.258 12.7081C137.464 13.4633 138.153 13.9827 138.93 13.979L141.505 13.9827V11.7283C141.505 8.75554 137.729 7.68359 135.184 7.68359C129.747 7.68359 125.805 11.4667 125.805 16.6791C125.805 21.8878 129.706 25.6709 135.084 25.6709C139.752 25.6709 142.286 22.6024 142.312 22.5767L142.444 22.4109L140.404 19.0256L140.146 19.3092Z" fill="#191825" fill-opacity="0.5"/>
</g>
</g>
</svg>
