<svg width="114" height="32" viewBox="0 0 114 32" fill="none" xmlns="http://www.w3.org/2000/svg">
<path d="M55.2705 25.0383H51.7555C51.7332 25.0383 51.7332 25.0383 51.7221 25.0271L48.6966 21.3342L45.671 25.0271C45.6599 25.0383 45.6488 25.0383 45.6376 25.0383H42.8234C42.8012 25.0383 42.7901 25.0271 42.7789 25.016C42.7789 25.0049 42.7789 24.9827 42.7901 24.9715L47.2505 19.4988L42.8457 14.0818C42.8345 14.0595 42.8345 14.0484 42.8345 14.0262C42.8457 14.015 42.8568 14.0039 42.8679 14.0039H46.3829C46.394 14.0039 46.4051 14.015 46.4163 14.0262L49.0747 17.3187L51.7777 14.0262C51.7888 14.015 51.8 14.0039 51.8111 14.0039H54.6698C54.6809 14.0039 54.7032 14.015 54.7143 14.0262C54.7254 14.0484 54.7143 14.0595 54.7032 14.0818L50.5319 19.0984L55.3149 24.9715C55.3261 24.9827 55.3261 25.0049 55.3261 25.016C55.3038 25.0383 55.2927 25.0383 55.2705 25.0383Z" fill="#191825" fill-opacity="0.5"/>
<path d="M74.2804 15.9384C72.7231 15.9384 71.6664 16.8839 71.3549 18.519H76.6496V18.4078C76.6496 17.1063 75.6819 15.9384 74.2804 15.9384ZM79.3749 20.2098C79.3637 20.2209 79.3526 20.232 79.3415 20.232H71.2993C71.4662 22.1007 72.6786 23.1686 74.6474 23.1686C75.8599 23.1686 77.1502 22.757 78.9633 21.7893C78.9967 21.767 79.03 21.8004 79.03 21.8338V24.3032C79.03 24.3254 79.0189 24.3365 79.0078 24.3365C77.317 25.0484 75.6152 25.5378 74.2804 25.5378C70.821 25.5378 68.3071 23.0128 68.3071 19.5424C68.3071 16.0719 70.821 13.5469 74.2804 13.5469C77.4394 13.5469 79.4638 15.6714 79.4638 18.5969C79.4638 19.0752 79.386 20.1764 79.3749 20.2098Z" fill="#191825" fill-opacity="0.5"/>
<path d="M95.7038 11.7112C94.7138 11.7112 93.913 10.9215 93.913 9.95373C93.913 8.95263 94.7138 8.14062 95.7038 8.14062C96.6938 8.14062 97.4947 8.95263 97.4947 9.95373C97.4947 10.9215 96.6938 11.7112 95.7038 11.7112ZM94.2578 25.037C94.2244 25.037 94.2133 25.0259 94.2133 24.9925V14.036C94.2133 14.0138 94.2244 13.9915 94.2467 13.9915H97.1499C97.1721 13.9915 97.1832 14.0138 97.1832 14.036V24.9925C97.1832 25.0259 97.161 25.037 97.1387 25.037H94.2578Z" fill="#191825" fill-opacity="0.5"/>
<path d="M60.5873 23.391C60.0645 23.391 59.5306 23.3132 58.9077 23.1574L58.9188 16.1275C59.6418 15.8939 60.2647 15.7938 60.8876 15.7938C62.901 15.7938 64.2469 17.2732 64.2469 19.4867C64.2469 21.856 62.812 23.391 60.5873 23.391ZM61.3771 13.5469C60.5539 13.5469 59.7308 13.6915 58.8632 13.9918H55.9711C55.9489 13.9918 55.9266 14.0141 55.9266 14.0363V32.0005C56.7943 31.8782 57.8621 31.5667 58.9077 30.8326V25.371C59.6196 25.4711 60.2091 25.5378 60.7764 25.5378C64.7363 25.5378 67.2947 23.1686 67.2947 19.4979C67.2947 15.994 64.8587 13.5469 61.3771 13.5469Z" fill="#191825" fill-opacity="0.5"/>
<path d="M88.9742 22.4771C88.0732 22.9554 87.2612 23.1779 86.5048 23.1779C84.7139 23.1779 83.635 21.9098 83.635 19.7852C83.635 17.3381 85.0031 15.7475 87.1277 15.7475C87.7172 15.7475 88.2845 15.8921 88.9742 16.2035V22.4771ZM88.9742 8.1947V13.9232C88.1288 13.6785 87.3835 13.5673 86.6271 13.5673C83.1789 13.5673 80.5872 16.159 80.5872 19.6073C80.5872 23.0332 82.8786 25.5249 86.0376 25.5249C87.1277 25.5249 88.151 25.2468 89.3524 24.635V25.625C90.1421 25.4693 91.0542 25.1578 91.9552 24.5127V7.01562C91.0765 7.13798 90.0309 7.43831 88.9742 8.1947Z" fill="#191825" fill-opacity="0.5"/>
<path d="M107.25 22.4579C106.371 22.9584 105.626 23.2031 104.959 23.2031C103.034 23.2031 101.888 21.9351 101.888 19.8105C101.888 17.3967 103.246 15.7727 105.259 15.7727C105.793 15.7727 106.449 15.9841 107.25 16.4068V22.4579ZM110.231 13.8595C110.231 13.7928 110.175 13.7372 110.109 13.7372H107.762C107.695 13.7372 107.628 13.7928 107.628 13.8595V14.26H107.572C106.494 13.7817 105.559 13.5703 104.658 13.5703C101.41 13.5703 98.8629 16.2622 98.8629 19.7104C98.8629 23.192 101.143 25.5279 104.536 25.5279C105.437 25.5279 106.605 25.4612 107.695 24.2154V25.628C108.462 25.4612 109.374 25.1386 110.231 24.5157V13.8595Z" fill="#191825" fill-opacity="0.5"/>
<path d="M34.7924 22.3002H42.0782C41.9669 23.1122 41.6888 24.0688 41.0659 25.0365H33.4909C32.5677 25.0365 31.8002 24.3135 31.7112 23.4125C31.7112 23.4014 31.7001 23.3902 31.7001 23.368V8.99663C31.7001 8.9855 31.7112 8.97438 31.7112 8.96326C31.8002 8.05114 32.5677 7.32812 33.4909 7.32812H42.067C41.9558 8.14013 41.6777 9.11898 41.0437 10.0867H34.7924V14.0021H40.9881C41.0103 14.0021 41.0326 14.0244 41.0326 14.0466V16.7607C41.0326 16.783 41.0103 16.8052 40.9881 16.8052H34.7924V22.3002Z" fill="#191825" fill-opacity="0.5"/>
<path d="M25.6714 25.2685C24.9484 25.2685 24.5034 24.7012 24.5034 24.0115C24.5034 23.2774 25.0151 22.7546 25.6714 22.7546C26.3165 22.7546 26.8282 23.2662 26.8282 24.0115C26.8282 24.7568 26.3165 25.2685 25.6714 25.2685ZM25.6714 22.6211C24.9373 22.6211 24.3032 23.1773 24.3032 24.0115C24.3032 24.8013 24.8705 25.4019 25.6714 25.4019C26.3944 25.4019 27.0284 24.8458 27.0284 24.0115C27.0284 23.1773 26.4055 22.6211 25.6714 22.6211Z" fill="#191825" fill-opacity="0.5"/>
<path d="M25.3485 23.9027V23.391H25.6933C25.8713 23.391 26.0715 23.4133 26.0715 23.6246C26.0715 23.8805 25.8824 23.8916 25.6711 23.8916C25.6599 23.9027 25.3485 23.9027 25.3485 23.9027ZM26.3162 23.658C26.3162 23.3243 26.116 23.1797 25.7156 23.1797H25.0927V24.8259H25.3596V24.1252H25.6154L26.0381 24.8259H26.3496L25.8935 24.1029C26.1382 24.0807 26.3162 23.9583 26.3162 23.658Z" fill="#191825" fill-opacity="0.5"/>
<path d="M112.633 15.8159C111.91 15.8159 111.465 15.2486 111.465 14.559C111.465 13.8248 111.977 13.302 112.633 13.302C113.279 13.302 113.79 13.8137 113.79 14.559C113.79 15.3042 113.279 15.8159 112.633 15.8159ZM112.633 13.1797C111.899 13.1797 111.265 13.7359 111.265 14.5701C111.265 15.3599 111.833 15.9605 112.633 15.9605C113.356 15.9605 113.99 15.4044 113.99 14.5701C113.99 13.7247 113.356 13.1797 112.633 13.1797Z" fill="#191825" fill-opacity="0.5"/>
<path d="M112.3 14.4463V13.9457H112.645C112.823 13.9457 113.023 13.968 113.023 14.1793C113.023 14.4351 112.834 14.4463 112.622 14.4463H112.3ZM113.279 14.2127C113.279 13.879 113.079 13.7344 112.678 13.7344H112.055V15.3806H112.322V14.6799H112.578L113.001 15.3806H113.312L112.856 14.6576C113.09 14.6354 113.279 14.513 113.279 14.2127Z" fill="#191825" fill-opacity="0.5"/>
<path d="M16.2719 10.0759L15.7491 8.58534L11.2553 2.58985L12.0562 2.38963L19.7869 9.07476L24.3363 7.77333C24.8703 7.63985 25.4821 7.60648 25.9381 7.60648C24.5143 4.52531 21.8892 1.98919 18.441 0.765622C11.6224 -1.67039 4.1141 1.9002 1.68921 8.72994C0.932821 10.8434 0.76597 13.0236 1.07742 15.0925L11.9672 11.3106L16.2719 10.0759Z" fill="#191825" fill-opacity="0.5"/>
<path d="M26.4276 8.78516C26.0272 9.04099 25.4376 9.38582 24.8592 9.57491L20.2986 10.8763L17.262 20.6426L16.4722 20.8985L17.1174 13.4458L16.7614 11.8997L12.49 13.1233L1.18872 15.7595C2.08971 20.0976 5.15976 23.8907 9.64247 25.4813C16.4722 27.9173 23.9693 24.3467 26.4054 17.517C27.451 14.5915 27.3842 11.5215 26.4276 8.78516Z" fill="#191825" fill-opacity="0.5"/>
<path d="M16.7503 11.8894L17.1063 13.4355L16.4611 20.8882L17.2509 20.6323L20.2876 10.866L24.8481 9.56459C25.4265 9.37549 26.0161 9.04179 26.4165 8.77483C26.2719 8.37439 26.1162 7.98507 25.9382 7.59576C25.471 7.59576 24.8704 7.618 24.3365 7.76261L19.787 9.06404L12.0563 2.37891L11.2554 2.57913L15.7381 8.57461L16.2609 10.0651L11.9562 11.2998L1.06641 15.0818C1.09978 15.3042 1.14427 15.5378 1.18876 15.7603L12.479 13.1018L16.7503 11.8894Z" fill="white"/>
</svg>
