<svg width="214" height="32" viewBox="0 0 214 32" fill="none" xmlns="http://www.w3.org/2000/svg">
<path d="M23.0163 19.2256C24.8552 24.1611 30.3976 26.6875 35.3812 24.87C40.362 23.0399 42.9179 17.5549 41.0719 12.618C39.2315 7.67534 33.6977 5.15318 28.707 6.9749C23.7205 8.80367 21.1746 14.2858 23.0163 19.2256Z" fill="white"/>
<path d="M10.7081 25.4216C16.0239 25.4216 20.3331 21.1527 20.3331 15.8866C20.3331 10.6205 16.0239 6.35156 10.7081 6.35156C5.3923 6.35156 1.08301 10.6205 1.08301 15.8866C1.08301 21.1527 5.3923 25.4216 10.7081 25.4216Z" fill="white"/>
<path d="M12.3493 15.7841C12.3493 16.7557 11.5525 17.5521 10.5717 17.5521C9.5867 17.5521 8.79126 16.7571 8.79126 15.7841C8.79126 14.8139 9.5867 14.0273 10.5717 14.0273C11.5525 14.0288 12.3493 14.8139 12.3493 15.7841Z" fill="#191825" fill-opacity="0.5"/>
<path d="M33.7988 15.7841C33.7988 16.7557 33.0048 17.5521 32.024 17.5521C31.0361 17.5521 30.2435 16.7571 30.2435 15.7841C30.2435 14.8139 31.0361 14.0273 32.024 14.0273C33.0062 14.0288 33.7988 14.8139 33.7988 15.7841Z" fill="#191825" fill-opacity="0.5"/>
<path d="M5.28296 15.7868C5.28296 18.6775 7.65644 21.0246 10.5745 21.0246C13.4854 21.0246 15.8574 18.6775 15.8574 15.7868C15.8574 12.9031 13.4839 10.5547 10.5745 10.5547C7.65786 10.5575 5.28296 12.9046 5.28296 15.7868ZM7.10619 15.7868C7.10619 13.8959 8.6657 12.358 10.5773 12.358C12.4861 12.358 14.037 13.9001 14.037 15.7868C14.037 17.6834 12.4861 19.2241 10.5773 19.2241C8.6657 19.2255 7.10619 17.6862 7.10619 15.7868Z" fill="#191825" fill-opacity="0.5"/>
<path d="M26.7351 15.7868C26.7351 18.6775 29.1057 21.0246 32.0223 21.0246C34.9347 21.0246 37.3039 18.6775 37.3039 15.7868C37.3039 12.9031 34.9347 10.5547 32.0223 10.5547C29.1072 10.5575 26.7351 12.9046 26.7351 15.7868ZM28.5583 15.7868C28.5583 13.8959 30.1136 12.358 32.0266 12.358C33.9354 12.358 35.4849 13.9001 35.4849 15.7868C35.4849 17.6834 33.9354 19.2241 32.0266 19.2241C30.1107 19.2255 28.5583 17.6862 28.5583 15.7868Z" fill="#191825" fill-opacity="0.5"/>
<path d="M28.3364 5.97362C29.4512 5.56691 30.5916 5.3692 31.7178 5.33814C28.65 3.97821 25.1775 3.28906 21.33 3.28906C17.5125 3.28906 13.9886 3.99374 10.9224 5.29295C16.4719 5.40168 20.9836 9.70742 21.3728 15.1344C21.4669 13.8889 21.7748 12.6575 22.3179 11.491C23.5139 8.91095 25.6536 6.95367 28.3364 5.97362Z" fill="white"/>
<path d="M40.6499 9.6225C41.1517 7.49434 42.744 5.36477 42.744 5.36477L35.5979 5.36054C31.5908 2.79743 26.7241 1.4375 21.3328 1.4375C15.7362 1.4375 10.6828 2.82991 6.69849 5.41137L0 5.41702C0 5.41702 1.57377 7.52258 2.08268 9.63521C0.779756 11.3905 0.00570205 13.5469 0.00570205 15.8883C0.00570205 21.7334 4.80826 26.4882 10.7113 26.4882C14.0855 26.4882 17.0948 24.9305 19.0577 22.5101L21.3371 25.8908L23.6336 22.4804C24.6671 23.7824 25.9999 24.8387 27.5623 25.5547C30.161 26.7381 33.0733 26.8553 35.7547 25.8739C41.2928 23.8446 44.1367 17.7284 42.0883 12.2492C41.7291 11.2846 41.2387 10.4077 40.6499 9.6225ZM21.3314 3.28887C25.1788 3.28887 28.6514 3.97801 31.7191 5.33935C30.5915 5.36901 29.4525 5.56813 28.3378 5.97201C25.655 6.95206 23.5153 8.90935 22.3221 11.4852C21.779 12.6516 21.4725 13.883 21.377 15.1286C20.985 9.7044 16.4732 5.39866 10.9237 5.2871C13.9886 3.99213 17.511 3.28887 21.3314 3.28887ZM17.7847 20.6248C16.248 22.8702 13.6479 24.3501 10.7085 24.3501C5.99571 24.3501 2.16108 20.5485 2.16108 15.8898C2.16108 11.2183 5.99713 7.42373 10.7085 7.42373C15.4198 7.42373 19.2544 11.2183 19.2544 15.8898C19.2544 16.175 19.1988 16.4433 19.1689 16.7187C19.0263 18.1492 18.5616 19.4894 17.7847 20.6248ZM35.0063 23.8672C32.8652 24.6467 30.5431 24.5605 28.4689 23.613C26.9978 22.9379 25.7932 21.8802 24.9251 20.5669C24.5716 20.0359 24.2608 19.4725 24.0313 18.8553C23.7704 18.1577 23.6407 17.4389 23.5709 16.7145C23.4283 15.2458 23.6436 13.7602 24.2822 12.3833C25.2401 10.3286 26.9451 8.7653 29.0862 7.98013C33.5081 6.3646 38.4304 8.61138 40.0641 12.9905C41.6963 17.3697 39.4268 22.246 35.0063 23.8672Z" fill="#191825" fill-opacity="0.5"/>
<path d="M55.37 2.98674L52.2367 4.05859C52.2367 4.05859 52.2367 7.77545 52.2367 8.10872C51.9088 8.10872 48.7642 8.10872 48.7642 8.10872V10.8243C48.7642 10.8243 51.8119 10.8243 52.1426 10.8243C52.1426 11.1774 52.1426 19.5431 52.1426 19.5431C52.1426 23.6865 53.5667 25.3867 57.0692 25.3867C57.9573 25.3867 58.8055 25.278 59.6565 25.0478L59.7948 25.0139L59.7563 22.198L59.5168 22.2884C58.8283 22.5243 58.2894 22.6401 57.8732 22.6401C56.2281 22.6401 55.618 21.7235 55.618 19.2494C55.618 19.2494 55.618 11.176 55.618 10.8286C55.9516 10.8286 59.6251 10.8286 59.6251 10.8286V8.10872C59.6251 8.10872 55.953 8.10872 55.618 8.10872C55.618 7.77262 55.618 2.90625 55.618 2.90625L55.37 2.98674Z" fill="#191825" fill-opacity="0.5"/>
<path d="M66.2038 10.8586C66.2038 9.90253 66.2038 8.10765 66.2038 8.10765H63.0249V25.0863H66.5003V16.5638C66.5003 12.991 68.0156 11.0224 70.7612 11.0224C71.1589 11.0224 71.5452 11.0817 72.0156 11.213L72.2408 11.2766L72.3549 7.92548L70.8595 7.8125C68.8453 7.81109 67.2188 8.88858 66.2038 10.8586Z" fill="#191825" fill-opacity="0.5"/>
<path d="M78.5489 8.10622H75.2588V25.0863H78.7342V8.10622H78.5489ZM74.9224 3.13111C74.9224 4.26085 75.8518 5.17736 76.9894 5.17736C78.1298 5.17736 79.0564 4.26085 79.0564 3.13111C79.0564 2.00278 78.1298 1.08204 76.9894 1.08204C75.8518 1.07921 74.9224 2.00278 74.9224 3.13111Z" fill="#191825" fill-opacity="0.5"/>
<path d="M91.008 7.70703C88.6231 7.70703 86.6174 8.82548 85.2803 10.8604C85.2803 10.047 85.2803 8.10244 85.2803 8.10244H82.1028V31.9979H85.581C85.581 31.9979 85.581 23.6534 85.581 22.7355C86.8355 24.4258 88.6345 25.355 90.874 25.355C95.2674 25.355 98.1056 21.7836 98.1056 16.2691C98.1056 11.1485 95.2517 7.70703 91.008 7.70703ZM90.0372 22.5702C87.2874 22.5702 85.5796 20.2415 85.5796 16.5007C85.5796 12.8897 87.3815 10.5568 90.1698 10.5568C92.8569 10.5568 94.4634 12.7683 94.4634 16.4654C94.4648 20.2288 92.767 22.5702 90.0372 22.5702Z" fill="#191825" fill-opacity="0.5"/>
<path d="M108.264 7.71094C106.138 7.71094 104.276 8.10917 102.569 8.92259L102.463 8.97343L102.5 11.9122L102.774 11.7597C104.406 10.8559 105.951 10.3941 107.358 10.3941C109.876 10.3941 111.321 11.8232 111.321 14.3214C111.321 14.3214 111.321 14.3934 111.321 14.4668C111.015 14.4668 109.333 14.4668 109.333 14.4668C103.611 14.4668 100.463 16.5201 100.463 20.2426C100.463 23.2322 102.735 25.3222 105.988 25.3222C108.382 25.3222 110.234 24.3902 111.554 22.6363C111.554 23.3184 111.554 25.0878 111.554 25.0878H114.694V14.8128C114.693 10.1032 112.53 7.71094 108.264 7.71094ZM111.316 17.921C111.316 20.8456 109.539 22.7379 106.791 22.7379C105.107 22.7379 103.933 21.6421 103.933 20.0746C103.933 18.0142 105.921 16.883 109.531 16.883C109.531 16.883 111.018 16.883 111.318 16.883C111.316 17.1471 111.316 17.921 111.316 17.921Z" fill="#191825" fill-opacity="0.5"/>
<path d="M129.453 0C129.453 0 129.453 9.46584 129.453 10.412C128.172 8.64678 126.389 7.71192 124.098 7.71192C119.845 7.71192 116.989 11.1802 116.989 16.3347C116.989 21.6445 119.887 25.3529 124.028 25.3529C126.481 25.3529 128.394 24.2768 129.72 22.1853C129.72 23.0312 129.72 25.0888 129.72 25.0888H132.933V0H129.453ZM124.929 22.5031C122.28 22.5031 120.635 20.2154 120.635 16.5324C120.635 12.8452 122.295 10.4614 124.866 10.4614C127.737 10.4614 129.451 12.7294 129.451 16.5324C129.453 20.1659 127.683 22.5031 124.929 22.5031Z" fill="#191825" fill-opacity="0.5"/>
<path d="M148.463 8.10547L143.535 17.9102L138.979 8.10547H135.063L143.462 25.0855L152.09 8.10547H148.463Z" fill="#191825" fill-opacity="0.5"/>
<path d="M157.149 8.10622H153.858V25.0863H157.337V8.10622H157.149ZM153.526 3.13111C153.526 4.26085 154.454 5.17736 155.593 5.17736C156.737 5.17736 157.66 4.26085 157.66 3.13111C157.66 2.00278 156.734 1.08204 155.593 1.08204C154.455 1.07921 153.526 2.00278 153.526 3.13111Z" fill="#191825" fill-opacity="0.5"/>
<path d="M161.412 12.4613C161.412 14.8493 163.068 16.1075 166.128 17.5903C168.056 18.5294 169.064 19.083 169.064 20.4062C169.064 21.7633 167.827 22.6403 165.905 22.6403C164.547 22.6403 163.039 22.2618 161.545 21.5346L161.291 21.4103L161.178 24.4041L161.294 24.4465C162.722 25.0099 164.223 25.2853 165.774 25.2853C170.025 25.2853 172.769 23.2786 172.769 20.1732C172.769 17.5847 171.031 16.2699 168.019 14.8775C165.814 13.8509 164.889 13.2535 164.889 12.1647C164.889 11.1338 165.918 10.4616 167.509 10.4616C168.946 10.4616 170.349 10.778 171.676 11.405L171.927 11.5194L172.078 8.59051L171.939 8.55097C170.5 8.12731 169.078 7.91408 167.71 7.91408C163.944 7.90843 161.412 9.73861 161.412 12.4613Z" fill="#191825" fill-opacity="0.5"/>
<path d="M183.614 7.71094C178.391 7.71094 175.148 11.1185 175.148 16.5978C175.148 22.0799 178.393 25.4818 183.614 25.4818C188.861 25.4818 192.118 22.0785 192.118 16.5978C192.118 11.1199 188.858 7.71094 183.614 7.71094ZM183.644 22.673C180.757 22.673 178.818 20.2186 178.818 16.5653C178.818 12.8922 180.757 10.4294 183.644 10.4294C186.577 10.4294 188.472 12.84 188.472 16.5653C188.472 20.2765 186.58 22.673 183.644 22.673Z" fill="#191825" fill-opacity="0.5"/>
<path d="M198.53 10.8586C198.53 9.90253 198.53 8.10765 198.53 8.10765H195.351V25.0863H198.826V16.5638C198.826 12.991 200.333 11.0224 203.083 11.0224C203.478 11.0224 203.861 11.0817 204.323 11.213L204.558 11.2766L204.667 7.92548L203.177 7.8125C201.171 7.81109 199.548 8.88858 198.53 10.8586Z" fill="#191825" fill-opacity="0.5"/>
<path d="M212.957 7.35641C213.527 7.92834 213.827 8.68809 213.827 9.50575C213.827 10.3601 213.505 11.1255 212.911 11.689C212.293 12.2708 211.526 12.5829 210.725 12.5829C209.888 12.5829 209.118 12.2567 208.519 11.6438C207.948 11.0563 207.624 10.305 207.624 9.50292C207.624 8.68527 207.954 7.89304 208.569 7.29145C209.147 6.73081 209.889 6.42578 210.725 6.42578C211.581 6.42719 212.361 6.74917 212.957 7.35641ZM208.954 7.69392C208.452 8.19101 208.185 8.83072 208.185 9.50575C208.185 10.1638 208.433 10.7696 208.912 11.2526C209.392 11.7497 210.029 12.018 210.712 12.018C211.376 12.018 212.015 11.7652 212.508 11.2907C212.993 10.829 213.259 10.1963 213.259 9.50433C213.259 8.8279 213.011 8.2136 212.541 7.74334C212.048 7.24626 211.422 6.985 210.725 6.985C210.038 6.985 209.435 7.2279 208.954 7.69392ZM210.782 7.75182C211.754 7.75182 212.253 8.10063 212.253 8.73187C212.253 9.16682 211.992 9.50433 211.529 9.64273L212.293 11.1241H211.258L210.621 9.78677H210.351V11.1241H209.413V7.75041L210.782 7.75182ZM210.344 9.23743H210.671C211.088 9.23743 211.289 9.09198 211.289 8.80248C211.289 8.47203 211.078 8.33646 210.621 8.33646H210.344V9.23743Z" fill="#191825" fill-opacity="0.5"/>
</svg>
