<svg width="34" height="42" viewBox="0 0 34 42" fill="none" xmlns="http://www.w3.org/2000/svg">
<path fill-rule="evenodd" clip-rule="evenodd" d="M0 17.4674C0 7.80757 7.68776 0 16.9868 0C26.3122 0 34 7.80757 34 17.4674C34 22.335 32.314 26.854 29.539 30.6844C26.4776 34.9094 22.7044 38.5907 18.457 41.48C17.485 42.1478 16.6078 42.1982 15.5408 41.48C11.2695 38.5907 7.49618 34.9094 4.461 30.6844C1.68396 26.854 0 22.335 0 17.4674ZM11.3885 18.0113C11.3885 21.2472 13.9034 23.7924 16.9868 23.7924C20.0724 23.7924 22.6116 21.2472 22.6116 18.0113C22.6116 14.8004 20.0724 12.1313 16.9868 12.1313C13.9034 12.1313 11.3885 14.8004 11.3885 18.0113Z" fill="white"/>
</svg>
